<svg width="46" height="33" viewBox="0 0 46 33" fill="none" xmlns="http://www.w3.org/2000/svg">
<path d="M0.671875 5.71335C0.671875 4.28297 1.26849 2.91116 2.33048 1.89973C3.39247 0.888288 4.83283 0.320068 6.3347 0.320068H40.3117C41.8135 0.320068 43.2539 0.888288 44.3159 1.89973C45.3779 2.91116 45.9745 4.28297 45.9745 5.71335V8.41H0.671875V5.71335ZM0.671875 13.8033V27.2865C0.671875 28.7169 1.26849 30.0887 2.33048 31.1001C3.39247 32.1116 4.83283 32.6798 6.3347 32.6798H40.3117C41.8135 32.6798 43.2539 32.1116 44.3159 31.1001C45.3779 30.0887 45.9745 28.7169 45.9745 27.2865V13.8033H0.671875ZM9.16612 19.1966H11.9975C12.7485 19.1966 13.4687 19.4807 13.9996 19.9864C14.5306 20.4921 14.8289 21.178 14.8289 21.8932V24.5899C14.8289 25.3051 14.5306 25.991 13.9996 26.4967C13.4687 27.0024 12.7485 27.2865 11.9975 27.2865H9.16612C8.41518 27.2865 7.695 27.0024 7.16401 26.4967C6.63301 25.991 6.3347 25.3051 6.3347 24.5899V21.8932C6.3347 21.178 6.63301 20.4921 7.16401 19.9864C7.695 19.4807 8.41518 19.1966 9.16612 19.1966Z" fill="#111111"/>
</svg>
