<svg width="8" height="12" viewBox="0 0 8 12" fill="none" xmlns="http://www.w3.org/2000/svg">
<path d="M0.860007 6.753L6.34201 11.549C6.98801 12.115 8.00001 11.655 8.00001 10.796V1.204C8.00017 1.01175 7.94492 0.823537 7.84087 0.661886C7.73681 0.500236 7.58837 0.372005 7.41331 0.292549C7.23826 0.213093 7.04401 0.185781 6.85383 0.213882C6.66365 0.241984 6.4856 0.324309 6.34101 0.450998L0.861007 5.247C0.753598 5.34086 0.667511 5.45661 0.608528 5.58649C0.549544 5.71636 0.519028 5.85736 0.519028 6C0.519028 6.14264 0.549544 6.28363 0.608528 6.41351C0.667511 6.54338 0.753598 6.65914 0.861007 6.753H0.860007Z" fill="white"/>
</svg>
