<svg width="278" height="59" viewBox="0 0 278 59" fill="none" xmlns="http://www.w3.org/2000/svg">
<path d="M134 29.5C134 45.7924 120.121 59 103 59C85.8792 59 72 45.7924 72 29.5C72 13.2076 85.8792 0 103 0C120.121 0 134 13.2076 134 29.5Z" fill="#FEB909"/>
<path d="M90.3555 14.5625H92.7773L103.285 39.6016L113.812 14.5625H116.215L104.203 43H102.367L90.3555 14.5625ZM89.6133 14.5625H91.7422L91.9961 30.5781V43H89.6133V14.5625ZM114.867 14.5625H116.996V43H114.594V30.5781L114.867 14.5625Z" fill="white"/>
<path d="M206 29.5C206 45.7924 192.121 59 175 59C157.879 59 144 45.7924 144 29.5C144 13.2076 157.879 0 175 0C192.121 0 206 13.2076 206 29.5Z" fill="#D9D9D9"/>
<path d="M185.121 29.4844V39.6016C184.796 40.0833 184.236 40.6172 183.441 41.2031C182.647 41.7891 181.579 42.3034 180.238 42.7461C178.897 43.1758 177.23 43.3906 175.238 43.3906C173.572 43.3906 172.042 43.0911 170.648 42.4922C169.255 41.8932 168.044 41.0273 167.016 39.8945C166 38.7487 165.212 37.375 164.652 35.7734C164.105 34.1719 163.832 32.375 163.832 30.3828V26.9453C163.832 24.9922 164.086 23.2344 164.594 21.6719C165.102 20.0964 165.837 18.7487 166.801 17.6289C167.764 16.5091 168.923 15.6562 170.277 15.0703C171.645 14.4714 173.174 14.1719 174.867 14.1719C176.977 14.1719 178.754 14.5365 180.199 15.2656C181.645 15.9948 182.771 16.9974 183.578 18.2734C184.398 19.5365 184.906 20.9688 185.102 22.5703H182.699C182.517 21.4375 182.139 20.3958 181.566 19.4453C180.993 18.4818 180.16 17.707 179.066 17.1211C177.986 16.5352 176.586 16.2422 174.867 16.2422C173.487 16.2422 172.257 16.4961 171.176 17.0039C170.108 17.5117 169.21 18.2344 168.48 19.1719C167.751 20.1094 167.198 21.2357 166.82 22.5508C166.443 23.8529 166.254 25.3047 166.254 26.9062V30.3828C166.254 32.0495 166.462 33.5534 166.879 34.8945C167.309 36.2357 167.921 37.388 168.715 38.3516C169.509 39.3151 170.46 40.0573 171.566 40.5781C172.673 41.0859 173.904 41.3398 175.258 41.3398C176.703 41.3398 177.934 41.2031 178.949 40.9297C179.965 40.6562 180.779 40.3307 181.391 39.9531C182.016 39.5625 182.465 39.1979 182.738 38.8594V31.5352H175.102V29.4844H185.121Z" fill="white"/>
<path d="M62 29.5C62 45.7924 48.1208 59 31 59C13.8792 59 0 45.7924 0 29.5C0 13.2076 13.8792 0 31 0C48.1208 0 62 13.2076 62 29.5Z" fill="#D9D9D9"/>
<path d="M32.2812 31.418H24.1758V29.3672H32.2812C33.974 29.3672 35.3477 29.0938 36.4023 28.5469C37.4701 27.987 38.2448 27.2318 38.7266 26.2812C39.2214 25.3307 39.4688 24.263 39.4688 23.0781C39.4688 21.9193 39.2214 20.8516 38.7266 19.875C38.2448 18.8984 37.4701 18.1172 36.4023 17.5312C35.3477 16.9323 33.974 16.6328 32.2812 16.6328H25.0156V43H22.6133V14.5625H32.2812C34.3646 14.5625 36.1159 14.9206 37.5352 15.6367C38.9674 16.3529 40.0482 17.349 40.7773 18.625C41.5065 19.901 41.8711 21.3724 41.8711 23.0391C41.8711 24.7839 41.5065 26.2878 40.7773 27.5508C40.0482 28.8008 38.974 29.7578 37.5547 30.4219C36.1354 31.0859 34.3776 31.418 32.2812 31.418Z" fill="white"/>
<path d="M278 29.5C278 45.7924 264.121 59 247 59C229.879 59 216 45.7924 216 29.5C216 13.2076 229.879 0 247 0C264.121 0 278 13.2076 278 29.5Z" fill="#D9D9D9"/>
<path d="M243.121 29.4844V39.6016C242.796 40.0833 242.236 40.6172 241.441 41.2031C240.647 41.7891 239.579 42.3034 238.238 42.7461C236.897 43.1758 235.23 43.3906 233.238 43.3906C231.572 43.3906 230.042 43.0911 228.648 42.4922C227.255 41.8932 226.044 41.0273 225.016 39.8945C224 38.7487 223.212 37.375 222.652 35.7734C222.105 34.1719 221.832 32.375 221.832 30.3828V26.9453C221.832 24.9922 222.086 23.2344 222.594 21.6719C223.102 20.0964 223.837 18.7487 224.801 17.6289C225.764 16.5091 226.923 15.6562 228.277 15.0703C229.645 14.4714 231.174 14.1719 232.867 14.1719C234.977 14.1719 236.754 14.5365 238.199 15.2656C239.645 15.9948 240.771 16.9974 241.578 18.2734C242.398 19.5365 242.906 20.9688 243.102 22.5703H240.699C240.517 21.4375 240.139 20.3958 239.566 19.4453C238.993 18.4818 238.16 17.707 237.066 17.1211C235.986 16.5352 234.586 16.2422 232.867 16.2422C231.487 16.2422 230.257 16.4961 229.176 17.0039C228.108 17.5117 227.21 18.2344 226.48 19.1719C225.751 20.1094 225.198 21.2357 224.82 22.5508C224.443 23.8529 224.254 25.3047 224.254 26.9062V30.3828C224.254 32.0495 224.462 33.5534 224.879 34.8945C225.309 36.2357 225.921 37.388 226.715 38.3516C227.509 39.3151 228.46 40.0573 229.566 40.5781C230.673 41.0859 231.904 41.3398 233.258 41.3398C234.703 41.3398 235.934 41.2031 236.949 40.9297C237.965 40.6562 238.779 40.3307 239.391 39.9531C240.016 39.5625 240.465 39.1979 240.738 38.8594V31.5352H233.102V29.4844H243.121Z" fill="white"/>
<path d="M270.504 29.4844V39.6016C270.178 40.0833 269.618 40.6172 268.824 41.2031C268.03 41.7891 266.962 42.3034 265.621 42.7461C264.28 43.1758 262.613 43.3906 260.621 43.3906C258.954 43.3906 257.424 43.0911 256.031 42.4922C254.638 41.8932 253.427 41.0273 252.398 39.8945C251.383 38.7487 250.595 37.375 250.035 35.7734C249.488 34.1719 249.215 32.375 249.215 30.3828V26.9453C249.215 24.9922 249.469 23.2344 249.977 21.6719C250.484 20.0964 251.22 18.7487 252.184 17.6289C253.147 16.5091 254.306 15.6562 255.66 15.0703C257.027 14.4714 258.557 14.1719 260.25 14.1719C262.359 14.1719 264.137 14.5365 265.582 15.2656C267.027 15.9948 268.154 16.9974 268.961 18.2734C269.781 19.5365 270.289 20.9688 270.484 22.5703H268.082C267.9 21.4375 267.522 20.3958 266.949 19.4453C266.376 18.4818 265.543 17.707 264.449 17.1211C263.368 16.5352 261.969 16.2422 260.25 16.2422C258.87 16.2422 257.639 16.4961 256.559 17.0039C255.491 17.5117 254.592 18.2344 253.863 19.1719C253.134 20.1094 252.581 21.2357 252.203 22.5508C251.826 23.8529 251.637 25.3047 251.637 26.9062V30.3828C251.637 32.0495 251.845 33.5534 252.262 34.8945C252.691 36.2357 253.303 37.388 254.098 38.3516C254.892 39.3151 255.842 40.0573 256.949 40.5781C258.056 41.0859 259.286 41.3398 260.641 41.3398C262.086 41.3398 263.316 41.2031 264.332 40.9297C265.348 40.6562 266.161 40.3307 266.773 39.9531C267.398 39.5625 267.848 39.1979 268.121 38.8594V31.5352H260.484V29.4844H270.504Z" fill="white"/>
</svg>
