<svg width="48" height="44" viewBox="0 0 48 44" fill="none" xmlns="http://www.w3.org/2000/svg">
<g clip-path="url(#clip0_235_2881)">
<path d="M12.334 15.6799C12.334 15.3223 12.4876 14.9793 12.7609 14.7265C13.0343 14.4736 13.4051 14.3315 13.7917 14.3315H34.1997C34.5863 14.3315 34.957 14.4736 35.2304 14.7265C35.5038 14.9793 35.6574 15.3223 35.6574 15.6799C35.6574 16.0375 35.5038 16.3804 35.2304 16.6333C34.957 16.8861 34.5863 17.0282 34.1997 17.0282H13.7917C13.4051 17.0282 13.0343 16.8861 12.7609 16.6333C12.4876 16.3804 12.334 16.0375 12.334 15.6799ZM12.334 29.1631C12.334 28.8055 12.4876 28.4625 12.7609 28.2097C13.0343 27.9568 13.4051 27.8148 13.7917 27.8148H34.1997C34.5863 27.8148 34.957 27.9568 35.2304 28.2097C35.5038 28.4625 35.6574 28.8055 35.6574 29.1631C35.6574 29.5207 35.5038 29.8636 35.2304 30.1165C34.957 30.3693 34.5863 30.5114 34.1997 30.5114H13.7917C13.4051 30.5114 13.0343 30.3693 12.7609 30.1165C12.4876 29.8636 12.334 29.5207 12.334 29.1631ZM15.2494 19.7248C14.4762 19.7248 13.7346 20.0089 13.1879 20.5147C12.6411 21.0204 12.334 21.7063 12.334 22.4215C12.334 23.1367 12.6411 23.8226 13.1879 24.3283C13.7346 24.834 14.4762 25.1181 15.2494 25.1181H32.7419C33.5152 25.1181 34.2567 24.834 34.8035 24.3283C35.3502 23.8226 35.6574 23.1367 35.6574 22.4215C35.6574 21.7063 35.3502 21.0204 34.8035 20.5147C34.2567 20.0089 33.5152 19.7248 32.7419 19.7248H15.2494Z" fill="#7F7F7F"/>
<path d="M0.671875 12.9832C0.671875 11.9104 1.13261 10.8816 1.95274 10.123C2.77286 9.3644 3.88518 8.93823 5.04501 8.93823H42.9455C44.1053 8.93823 45.2177 9.3644 46.0378 10.123C46.8579 10.8816 47.3186 11.9104 47.3186 12.9832V17.0282C47.3186 17.3858 47.1651 17.7287 46.8917 17.9816C46.6183 18.2344 46.2475 18.3765 45.8609 18.3765C44.7011 18.3765 43.5888 18.8026 42.7686 19.5612C41.9485 20.3198 41.4878 21.3487 41.4878 22.4214C41.4878 23.4942 41.9485 24.5231 42.7686 25.2817C43.5888 26.0402 44.7011 26.4664 45.8609 26.4664C46.2475 26.4664 46.6183 26.6085 46.8917 26.8613C47.1651 27.1142 47.3186 27.4571 47.3186 27.8147V31.8597C47.3186 32.9325 46.8579 33.9613 46.0378 34.7199C45.2177 35.4785 44.1053 35.9047 42.9455 35.9047H5.04501C3.88518 35.9047 2.77286 35.4785 1.95274 34.7199C1.13261 33.9613 0.671875 32.9325 0.671875 31.8597L0.671875 27.8147C0.671875 27.4571 0.825455 27.1142 1.09883 26.8613C1.3722 26.6085 1.74298 26.4664 2.12959 26.4664C3.28941 26.4664 4.40174 26.0402 5.22186 25.2817C6.04198 24.5231 6.50272 23.4942 6.50272 22.4214C6.50272 21.3487 6.04198 20.3198 5.22186 19.5612C4.40174 18.8026 3.28941 18.3765 2.12959 18.3765C1.74298 18.3765 1.3722 18.2344 1.09883 17.9816C0.825455 17.7287 0.671875 17.3858 0.671875 17.0282V12.9832ZM5.04501 11.6349C4.6584 11.6349 4.28762 11.7769 4.01425 12.0298C3.74088 12.2826 3.5873 12.6256 3.5873 12.9832V15.8147C5.23493 16.1241 6.71624 16.9509 7.78023 18.155C8.84421 19.3591 9.42545 20.8664 9.42545 22.4214C9.42545 23.9765 8.84421 25.4838 7.78023 26.6879C6.71624 27.892 5.23493 28.7188 3.5873 29.0282V31.8597C3.5873 32.2173 3.74088 32.5602 4.01425 32.8131C4.28762 33.066 4.6584 33.208 5.04501 33.208H42.9455C43.3321 33.208 43.7029 33.066 43.9763 32.8131C44.2496 32.5602 44.4032 32.2173 44.4032 31.8597V29.0282C42.7556 28.7188 41.2743 27.892 40.2103 26.6879C39.1463 25.4838 38.5651 23.9765 38.5651 22.4214C38.5651 20.8664 39.1463 19.3591 40.2103 18.155C41.2743 16.9509 42.7556 16.1241 44.4032 15.8147V12.9832C44.4032 12.6256 44.2496 12.2826 43.9763 12.0298C43.7029 11.7769 43.3321 11.6349 42.9455 11.6349H5.04501Z" fill="#7F7F7F"/>
</g>
<defs>
<clipPath id="clip0_235_2881">
<rect width="46.6468" height="43.1463" fill="white" transform="translate(0.671875 0.848389)"/>
</clipPath>
</defs>
</svg>
