<svg width="271" height="60" viewBox="0 0 271 60" fill="none" xmlns="http://www.w3.org/2000/svg">
<path d="M69.5282 29.8519C69.5282 13.3652 82.8934 0 99.3801 0H101.647C118.134 0 131.499 13.3652 131.499 29.8519C131.499 46.3387 118.134 59.7038 101.647 59.7038H99.3801C82.8934 59.7038 69.5282 46.3387 69.5282 29.8519Z" fill="#4D6697"/>
<path d="M0 29.8519C0 13.3652 13.3652 0 29.8519 0H32.1192C48.6059 0 61.9711 13.3652 61.9711 29.8519C61.9711 46.3387 48.6059 59.7038 32.1191 59.7038H29.8519C13.3652 59.7038 0 46.3387 0 29.8519Z" fill="#73E1DB"/>
<path d="M16.1564 16.4832C16.0356 16.3624 15.9398 16.2191 15.8744 16.0613C15.8091 15.9035 15.7754 15.7344 15.7754 15.5636C15.7754 15.3928 15.8091 15.2236 15.8744 15.0659C15.9398 14.9081 16.0356 14.7647 16.1564 14.6439C16.2771 14.5231 16.4205 14.4273 16.5783 14.362C16.7361 14.2966 16.9052 14.263 17.076 14.263C17.2468 14.263 17.4159 14.2966 17.5737 14.362C17.7315 14.4273 17.8749 14.5231 17.9957 14.6439L31.3643 28.0152L44.733 14.6439C44.8537 14.5231 44.9971 14.4273 45.1549 14.362C45.3127 14.2966 45.4818 14.263 45.6526 14.263C45.8234 14.263 45.9925 14.2966 46.1503 14.362C46.3081 14.4273 46.4515 14.5231 46.5723 14.6439C46.693 14.7647 46.7888 14.9081 46.8542 15.0659C46.9196 15.2236 46.9532 15.3928 46.9532 15.5636C46.9532 15.7344 46.9196 15.9035 46.8542 16.0613C46.7888 16.2191 46.693 16.3624 46.5723 16.4832L33.201 29.8519L46.5723 43.2205C46.693 43.3413 46.7888 43.4847 46.8542 43.6424C46.9196 43.8002 46.9532 43.9694 46.9532 44.1402C46.9532 44.311 46.9196 44.4801 46.8542 44.6379C46.7888 44.7957 46.693 44.939 46.5723 45.0598C46.4515 45.1806 46.3081 45.2764 46.1503 45.3417C45.9925 45.4071 45.8234 45.4407 45.6526 45.4407C45.4818 45.4407 45.3127 45.4071 45.1549 45.3417C44.9971 45.2764 44.8537 45.1806 44.733 45.0598L31.3643 31.6886L17.9957 45.0598C17.8749 45.1806 17.7315 45.2764 17.5737 45.3417C17.4159 45.4071 17.2468 45.4407 17.076 45.4407C16.9052 45.4407 16.7361 45.4071 16.5783 45.3417C16.4205 45.2764 16.2771 45.1806 16.1564 45.0598C16.0356 44.939 15.9398 44.7957 15.8744 44.6379C15.8091 44.4801 15.7754 44.311 15.7754 44.1402C15.7754 43.9694 15.8091 43.8002 15.8744 43.6424C15.9398 43.4847 16.0356 43.3413 16.1564 43.2205L29.5276 29.8519L16.1564 16.4832Z" fill="white"/>
<path d="M139.056 29.8519C139.056 13.3652 152.421 0 168.908 0H171.175C187.662 0 201.027 13.3652 201.027 29.8519C201.027 46.3387 187.662 59.7038 171.175 59.7038H168.908C152.421 59.7038 139.056 46.3387 139.056 29.8519Z" fill="black"/>
<path d="M155.212 16.4833C155.092 16.3625 154.996 16.2191 154.931 16.0613C154.865 15.9035 154.832 15.7344 154.832 15.5636C154.832 15.3928 154.865 15.2237 154.931 15.0659C154.996 14.9081 155.092 14.7647 155.212 14.644C155.333 14.5232 155.477 14.4274 155.634 14.362C155.792 14.2967 155.961 14.263 156.132 14.263C156.303 14.263 156.472 14.2967 156.63 14.362C156.788 14.4274 156.931 14.5232 157.052 14.644L170.42 28.0152L183.789 14.644C183.91 14.5232 184.053 14.4274 184.211 14.362C184.369 14.2967 184.538 14.263 184.709 14.263C184.88 14.263 185.049 14.2967 185.206 14.362C185.364 14.4274 185.508 14.5232 185.628 14.644C185.749 14.7647 185.845 14.9081 185.91 15.0659C185.976 15.2237 186.009 15.3928 186.009 15.5636C186.009 15.7344 185.976 15.9035 185.91 16.0613C185.845 16.2191 185.749 16.3625 185.628 16.4833L172.257 29.8519L185.628 43.2206C185.749 43.3413 185.845 43.4847 185.91 43.6425C185.976 43.8003 186.009 43.9694 186.009 44.1402C186.009 44.311 185.976 44.4801 185.91 44.6379C185.845 44.7957 185.749 44.9391 185.628 45.0599C185.508 45.1806 185.364 45.2764 185.206 45.3418C185.049 45.4072 184.88 45.4408 184.709 45.4408C184.538 45.4408 184.369 45.4072 184.211 45.3418C184.053 45.2764 183.91 45.1806 183.789 45.0599L170.42 31.6886L157.052 45.0599C156.931 45.1806 156.788 45.2764 156.63 45.3418C156.472 45.4072 156.303 45.4408 156.132 45.4408C155.961 45.4408 155.792 45.4072 155.634 45.3418C155.477 45.2764 155.333 45.1806 155.212 45.0599C155.092 44.9391 154.996 44.7957 154.931 44.6379C154.865 44.4801 154.832 44.311 154.832 44.1402C154.832 43.9694 154.865 43.8003 154.931 43.6425C154.996 43.4847 155.092 43.3413 155.212 43.2206L168.584 29.8519L155.212 16.4833Z" fill="white"/>
<path d="M208.585 29.8519C208.585 13.3652 221.95 0 238.437 0H240.704C257.191 0 270.556 13.3652 270.556 29.8519C270.556 46.3387 257.191 59.7038 240.704 59.7038H238.437C221.95 59.7038 208.585 46.3387 208.585 29.8519Z" fill="#DF2A2A"/>
<path d="M224.74 16.4832C224.62 16.3624 224.524 16.2191 224.459 16.0613C224.393 15.9035 224.36 15.7344 224.36 15.5636C224.36 15.3928 224.393 15.2237 224.459 15.0659C224.524 14.9081 224.62 14.7647 224.74 14.6439C224.861 14.5232 225.005 14.4274 225.162 14.362C225.32 14.2966 225.489 14.263 225.66 14.263C225.831 14.263 226 14.2966 226.158 14.362C226.316 14.4274 226.459 14.5232 226.58 14.6439L239.948 28.0152L253.317 14.6439C253.438 14.5232 253.581 14.4274 253.739 14.362C253.897 14.2966 254.066 14.263 254.237 14.263C254.407 14.263 254.577 14.2966 254.734 14.362C254.892 14.4274 255.036 14.5232 255.156 14.6439C255.277 14.7647 255.373 14.9081 255.438 15.0659C255.504 15.2237 255.537 15.3928 255.537 15.5636C255.537 15.7344 255.504 15.9035 255.438 16.0613C255.373 16.2191 255.277 16.3624 255.156 16.4832L241.785 29.8519L255.156 43.2205C255.277 43.3413 255.373 43.4847 255.438 43.6425C255.504 43.8002 255.537 43.9694 255.537 44.1402C255.537 44.311 255.504 44.4801 255.438 44.6379C255.373 44.7957 255.277 44.939 255.156 45.0598C255.036 45.1806 254.892 45.2764 254.734 45.3417C254.577 45.4071 254.407 45.4407 254.237 45.4407C254.066 45.4407 253.897 45.4071 253.739 45.3417C253.581 45.2764 253.438 45.1806 253.317 45.0598L239.948 31.6886L226.58 45.0598C226.459 45.1806 226.316 45.2764 226.158 45.3417C226 45.4071 225.831 45.4407 225.66 45.4407C225.489 45.4407 225.32 45.4071 225.162 45.3417C225.005 45.2764 224.861 45.1806 224.74 45.0598C224.62 44.939 224.524 44.7957 224.459 44.6379C224.393 44.4801 224.36 44.311 224.36 44.1402C224.36 43.9694 224.393 43.8002 224.459 43.6425C224.524 43.4847 224.62 43.3413 224.74 43.2205L238.112 29.8519L224.74 16.4832Z" fill="white"/>
</svg>
