<svg width="45" height="51" viewBox="0 0 45 51" fill="none" xmlns="http://www.w3.org/2000/svg">
<path fill-rule="evenodd" clip-rule="evenodd" d="M30.4688 11.1562C30.4688 9.04281 29.6292 7.01592 28.1348 5.52149C26.6403 4.02706 24.6134 3.1875 22.5 3.1875C20.3866 3.1875 18.3597 4.02706 16.8652 5.52149C15.3708 7.01592 14.5312 9.04281 14.5312 11.1562V12.75H30.4688V11.1562ZM33.6562 11.1562V12.75H44.8125V44.625C44.8125 46.3158 44.1409 47.9373 42.9453 49.1328C41.7498 50.3284 40.1283 51 38.4375 51H6.5625C4.87175 51 3.25024 50.3284 2.05469 49.1328C0.85915 47.9373 0.1875 46.3158 0.1875 44.625V12.75H11.3438V11.1562C11.3438 8.19743 12.5191 5.35979 14.6113 3.26759C16.7035 1.17539 19.5412 0 22.5 0C25.4588 0 28.2965 1.17539 30.3887 3.26759C32.4809 5.35979 33.6562 8.19743 33.6562 11.1562ZM24.0938 25.5C24.0938 25.0773 23.9258 24.6719 23.627 24.373C23.3281 24.0742 22.9227 23.9062 22.5 23.9062C22.0773 23.9062 21.6719 24.0742 21.373 24.373C21.0742 24.6719 20.9062 25.0773 20.9062 25.5V30.2812H16.125C15.7023 30.2812 15.2969 30.4492 14.998 30.748C14.6992 31.0469 14.5312 31.4523 14.5312 31.875C14.5312 32.2977 14.6992 32.7031 14.998 33.002C15.2969 33.3008 15.7023 33.4688 16.125 33.4688H20.9062V38.25C20.9062 38.6727 21.0742 39.0781 21.373 39.377C21.6719 39.6758 22.0773 39.8438 22.5 39.8438C22.9227 39.8438 23.3281 39.6758 23.627 39.377C23.9258 39.0781 24.0938 38.6727 24.0938 38.25V33.4688H28.875C29.2977 33.4688 29.7031 33.3008 30.002 33.002C30.3008 32.7031 30.4688 32.2977 30.4688 31.875C30.4688 31.4523 30.3008 31.0469 30.002 30.748C29.7031 30.4492 29.2977 30.2812 28.875 30.2812H24.0938V25.5Z" fill="#242424"/>
</svg>
